<?xml version="1.0" encoding="UTF-8"?>
<svg id="Layer_1" xmlns="http://www.w3.org/2000/svg" version="1.1" viewBox="0 0 2312.56 472.94">
  <!-- Generator: Adobe Illustrator 30.2.1, SVG Export Plug-In . SVG Version: 2.1.1 Build 1)  -->
  <defs>
    <style>
      .st0 {
        fill: #f09d33;
      }

      .st1 {
        fill: #055091;
      }
    </style>
  </defs>
  <g>
    <path class="st0" d="M726.17,281.18v11.99h-20.27v55.72h-14.24v-55.72h-20.35v-11.99h54.86,0Z"/>
    <path class="st0" d="M753.4,310.89c-5.27,0-8.81,1.7-10.61,5.14-1.01,1.93-1.52,4.9-1.52,8.9v23.93h-13.18v-50.06h12.48v8.72c2.02-3.34,3.78-5.61,5.28-6.85,2.46-2.06,5.64-3.07,9.56-3.07.24,0,.45,0,.61.03.17,0,.54.04,1.12.07v13.42c-.82-.09-1.55-.16-2.2-.18s-1.16-.06-1.56-.06h.01Z"/>
    <path class="st0" d="M766.72,304.24c3.45-4.4,9.39-6.62,17.82-6.62,5.47,0,10.34,1.09,14.61,3.27,4.25,2.17,6.39,6.28,6.39,12.31v22.97c0,1.59.03,3.52.09,5.78.09,1.7.34,2.88.78,3.49.43.61,1.07,1.12,1.93,1.52v1.93h-14.25c-.4-1.01-.67-1.96-.82-2.85s-.27-1.9-.37-3.04c-1.82,1.96-3.88,3.62-6.25,5.01-2.81,1.62-6.01,2.43-9.56,2.43-4.52,0-8.28-1.29-11.23-3.88s-4.43-6.26-4.43-11.01c0-6.15,2.37-10.61,7.12-13.36,2.61-1.51,6.42-2.57,11.49-3.21l4.46-.55c2.41-.31,4.15-.7,5.2-1.15,1.86-.8,2.8-2.03,2.8-3.71,0-2.06-.71-3.47-2.13-4.25s-3.51-1.16-6.28-1.16c-3.1,0-5.28.75-6.56,2.3-.92,1.14-1.53,2.66-1.83,4.6h-12.63c.27-4.39,1.51-7.98,3.68-10.79h0l-.03-.03ZM776.46,339.42c1.22,1.01,2.73,1.52,4.5,1.52,2.81,0,5.41-.82,7.78-2.49s3.61-4.66,3.71-9.05v-4.87c-.82.53-1.66.94-2.5,1.26s-2,.61-3.47.89l-2.94.55c-2.76.48-4.73,1.09-5.92,1.79-2.02,1.19-3.04,3.04-3.04,5.55,0,2.23.62,3.85,1.89,4.81h-.01Z"/>
    <path class="st0" d="M812.24,298.82h14.7l10.42,36.93,10.65-36.93h14.06l-18.05,50.06h-13.83l-17.97-50.06h.01Z"/>
    <path class="st0" d="M912.34,334.18c-.34,2.97-1.87,5.99-4.64,9.05-4.29,4.87-10.3,7.3-18.01,7.3-6.38,0-11.99-2.05-16.86-6.15s-7.3-10.78-7.3-20.04c0-8.66,2.2-15.32,6.59-19.93,4.39-4.63,10.1-6.94,17.1-6.94,4.16,0,7.91.78,11.26,2.34,3.32,1.56,6.09,4.02,8.27,7.39,1.96,2.97,3.24,6.42,3.82,10.33.34,2.3.47,5.61.41,9.93h-34.27c.18,5.03,1.76,8.55,4.73,10.57,1.82,1.26,3.98,1.89,6.53,1.89,2.7,0,4.89-.75,6.56-2.3.92-.82,1.73-1.97,2.43-3.44h13.36v.03h.01ZM899.38,318.84c-.21-3.45-1.26-6.09-3.15-7.88-1.87-1.79-4.22-2.68-7-2.68-3.04,0-5.38.95-7.06,2.85s-2.73,4.47-3.15,7.73h20.37Z"/>
    <path class="st0" d="M922.08,281.18h13.09v67.72h-13.09v-67.72Z"/>
    <path class="st0" d="M1011.33,334.96h-24.94l-4.69,13.92h-14.78l24.16-67.72h15.99l23.97,67.72h-15.34l-4.36-13.92h-.01ZM1007.38,323.29l-8.45-26.64-8.72,26.64h17.18-.01Z"/>
    <path class="st0" d="M1052.71,357.66c1.41,1.19,3.78,1.79,7.12,1.79,4.72,0,7.88-1.58,9.47-4.73,1.04-2.02,1.55-5.43,1.55-10.2v-3.21c-1.26,2.14-2.6,3.75-4.05,4.81-2.6,1.99-5.99,2.98-10.15,2.98-6.42,0-11.56-2.26-15.41-6.77-3.85-4.53-5.77-10.64-5.77-18.35s1.85-13.71,5.57-18.76c3.71-5.07,8.96-7.6,15.75-7.6,2.5,0,4.7.38,6.56,1.15,3.18,1.31,5.75,3.74,7.73,7.26v-7.21h12.73v47.49c0,6.46-1.09,11.33-3.27,14.61-3.74,5.64-10.89,8.45-21.5,8.45-6.41,0-11.62-1.26-15.67-3.76-4.05-2.51-6.28-6.26-6.7-11.26h14.25c.37,1.53.97,2.63,1.8,3.31h0ZM1050.51,331.8c1.78,4.23,4.96,6.33,9.56,6.33,3.05,0,5.65-1.15,7.77-3.47,2.1-2.31,3.17-6.01,3.17-11.05,0-4.74-1.01-8.37-3.01-10.84-2-2.49-4.69-3.72-8.05-3.72-4.6,0-7.77,2.16-9.52,6.48-.91,2.3-1.38,5.13-1.38,8.49,0,2.9.48,5.5,1.46,7.77h0Z"/>
    <path class="st0" d="M1138.89,334.18c-.34,2.97-1.87,5.99-4.64,9.05-4.29,4.87-10.3,7.3-18.01,7.3-6.38,0-11.99-2.05-16.86-6.15s-7.3-10.78-7.3-20.04c0-8.66,2.2-15.32,6.59-19.93,4.39-4.63,10.1-6.94,17.1-6.94,4.16,0,7.91.78,11.26,2.34,3.34,1.56,6.09,4.02,8.27,7.39,1.96,2.97,3.22,6.42,3.82,10.33.34,2.3.47,5.61.41,9.93h-34.27c.2,5.03,1.76,8.55,4.73,10.57,1.82,1.26,3.98,1.89,6.53,1.89,2.7,0,4.89-.75,6.56-2.3.92-.82,1.73-1.97,2.44-3.44h13.36v.03h0ZM1125.94,318.84c-.21-3.45-1.26-6.09-3.15-7.88-1.89-1.79-4.22-2.68-7-2.68-3.04,0-5.38.95-7.06,2.85s-2.71,4.47-3.15,7.73h20.37Z"/>
    <path class="st0" d="M1171.93,308.51c-4.43,0-7.5,1.87-9.13,5.65-.87,1.99-1.28,4.53-1.28,7.63v27.1h-13.04v-49.98h12.63v7.3c1.69-2.57,3.28-4.42,4.79-5.55,2.7-2.02,6.11-3.04,10.24-3.04,5.18,0,9.4,1.36,12.71,4.06,3.29,2.71,4.93,7.21,4.93,13.48v33.72h-13.42v-30.45c0-2.63-.36-4.66-1.05-6.06-1.28-2.57-3.74-3.85-7.36-3.85h-.01Z"/>
    <path class="st0" d="M1249.15,316.79h-13.42c-.24-1.86-.88-3.55-1.87-5.06-1.48-2.02-3.75-3.04-6.85-3.04-4.4,0-7.43,2.19-9.05,6.56-.87,2.33-1.28,5.43-1.28,9.27s.43,6.63,1.28,8.86c1.55,4.16,4.5,6.25,8.82,6.25,3.05,0,5.24-.82,6.53-2.49s2.07-3.79,2.34-6.42h13.36c-.31,3.98-1.75,7.75-4.32,11.29-4.1,5.74-10.18,8.59-18.24,8.59s-13.98-2.39-17.77-7.17-5.7-10.98-5.7-18.61c0-8.59,2.09-15.3,6.29-20.07,4.19-4.79,9.98-7.17,17.36-7.17,6.28,0,11.4,1.42,15.41,4.23s6.36,7.78,7.09,14.93h0v.03Z"/>
    <path class="st0" d="M1278.49,335.75l10.33-36.93h13.92l-17.18,49.24c-3.31,9.5-5.92,15.38-7.85,17.65-1.93,2.27-5.78,3.42-11.57,3.42-1.16,0-2.09,0-2.8-.03-.71,0-1.76-.07-3.17-.17v-10.47l1.66.09c1.28.07,2.5,0,3.68-.14s2.14-.5,2.94-1.05c.75-.53,1.48-1.6,2.13-3.27s.92-2.66.81-3.04l-18.38-52.28h14.56l10.94,36.93v.03h0Z"/>
  </g>
  <g>
    <path class="st1" d="M627.22,60.79h-262.15c-14.22,0-30.99-1.66-35.78,8.95-4.64,10.34-32.47,101.35-35.76,113.53l-52.12,193.69c-1.79,6.35-2.09,11.86-.95,16.55s3.29,8.49,6.48,11.4c3.17,2.91,7.36,5.07,12.55,6.46,5.2,1.41,11.11,2.09,17.7,2.09h142.68c13.45,0,25.11-2.85,35.01-8.56s16.62-15.04,20.17-27.98l34.24-127.1h-64.51c-18.43,0-35.72,6.21-49.58,16.89-13.85,10.67-24.26,25.79-28.97,43.62h97.27v-27.24l4.72,5.31,6.9,21.94-3.04,11.26-151.89,30.99,16.02-66.69c-16.43-.48-38.82-2.95-38.82-2.95l41.37-7.7,1.41-5.79c-22.88,3.11-64.39,5.27-64.39,5.27l67.49-18.15,27.55-114.71c2.9-12.06,13.69-20.57,26.08-20.57h75.81c5.27,35.63,19.74,67.46,40.28,90.51,20.83,23.36,47.89,37.68,77.93,37.68h5.21l28.49-172.86,2.61-15.82h0ZM339.77,152.93c-6.52,0-11.79-5.28-11.79-11.79s5.28-11.79,11.79-11.79,11.79,5.27,11.79,11.79-5.28,11.79-11.79,11.79Z"/>
    <path class="st1" d="M394.32,159.27c0,3.51,2.84,6.35,6.33,6.35s6.33-2.84,6.33-6.35-2.84-6.33-6.33-6.33-6.33,2.84-6.33,6.33Z"/>
  </g>
  <g>
    <path class="st1" d="M773.59,118.49l-7.97,32.79h-2.97c-6.18-3.08-11.52-5.31-16.02-6.68s-9.42-2.05-14.73-2.05c-5.68,0-10.04.92-13.07,2.77-3.04,1.85-5.21,5.13-6.58,9.81s-2.05,11.49-2.05,20.38.68,15.91,2.05,20.66,3.68,8.1,6.96,10.01,8,2.87,14.17,2.87c1.73,0,3.96-.24,6.68-.74v-5.92l-.55-20.2,33.9-2.4-.55,16.3v32.79c-14.33,5.44-28.6,8.15-42.81,8.15-19.39,0-34.03-5.16-43.91-15.47-9.88-10.33-14.81-25.05-14.81-44.2,0-20.99,5.84-37,17.51-47.99,11.67-10.99,28.38-16.49,50.12-16.49,13.34,0,24.9,1.85,34.64,5.57h-.01Z"/>
    <path class="st1" d="M855.67,156.3c7.04,7.41,10.57,18.34,10.57,32.79,0,15.81-3.81,27.75-11.4,35.85-7.6,8.1-18.82,12.13-33.63,12.13-13.83,0-24.27-3.68-31.32-11.02-7.04-7.36-10.57-18.18-10.57-32.51,0-15.94,3.81-27.98,11.4-36.13,7.6-8.15,18.8-12.21,33.63-12.21,13.83,0,24.27,3.71,31.32,11.12h0ZM816.2,170.86c-1.24.92-2.07,2.63-2.5,5.1s-.64,6.25-.64,11.31c0,7.53.28,13.12.84,16.77s1.56,6.18,3.05,7.6c1.48,1.42,3.76,2.13,6.85,2.13,2.47,0,4.29-.47,5.47-1.39,1.16-.92,1.97-2.66,2.4-5.2.44-2.53.65-6.33.65-11.4,0-7.41-.28-12.94-.84-16.57s-1.58-6.16-3.05-7.6c-1.48-1.42-3.71-2.13-6.68-2.13-2.49,0-4.33.47-5.57,1.39h.01Z"/>
    <path class="st1" d="M977.58,207.06l-2.23,27.79h-71.34l1.85-35.19-1.85-84.67h37.79l-2.05,80.97.37,8.52h35.39l2.03,2.6h.03Z"/>
    <path class="st1" d="M1051.7,152.12c6.16,4.63,9.26,11.28,9.26,19.91,0,2.47-.24,9.02-.74,19.64-.48,9.39-.74,14.64-.74,15.74,0,1.36.21,2.36.64,2.97.44.61,1.08.92,1.95.92s1.92-.2,3.15-.55l2.23,1.85-3.15,18.53c-4.57,3.21-10.33,5.07-17.23,5.57-3.58-.24-6.76-1.48-9.53-3.71s-4.91-5.37-6.41-9.44h-1.29c-5.44,6.29-11.62,10.74-18.53,13.34-9.39-.13-16.9-2.76-22.51-7.88-5.62-5.13-8.44-12.13-8.44-21.02,0-13.71,7.1-21.54,21.3-23.53l26.32-3.52v-2.23c0-3.21-.64-5.5-1.95-6.85-1.29-1.36-3.55-2.05-6.76-2.05-6.93,0-15.86,2.97-26.87,8.89l-2.23-1.48-3.89-22.79c5.68-2.97,11.94-5.24,18.82-6.85,6.85-1.6,13.62-2.4,20.3-2.4,11.36,0,20.12,2.31,26.3,6.96v-.03h0ZM1017.42,198.17c-1.73.24-3,.89-3.81,1.95s-1.21,2.63-1.21,4.73c0,4.94,2.29,7.41,6.85,7.41,2.97,0,5.87-.99,8.71-2.97v-12.61l-10.57,1.48h.03Z"/>
    <path class="st1" d="M1149.71,156.3c7.04,7.41,10.57,18.34,10.57,32.79,0,15.81-3.81,27.75-11.4,35.85-7.6,8.1-18.82,12.13-33.63,12.13-13.85,0-24.27-3.68-31.32-11.02-7.04-7.36-10.57-18.18-10.57-32.51,0-15.94,3.81-27.98,11.4-36.13,7.6-8.15,18.82-12.21,33.63-12.21,13.83,0,24.27,3.71,31.32,11.12h0ZM1110.25,170.86c-1.24.92-2.07,2.63-2.5,5.1-.44,2.47-.64,6.25-.64,11.31,0,7.53.28,13.12.84,16.77s1.56,6.18,3.05,7.6c1.48,1.42,3.76,2.13,6.85,2.13,2.47,0,4.29-.47,5.47-1.39,1.16-.92,1.97-2.66,2.4-5.2s.64-6.33.64-11.4c0-7.41-.28-12.94-.84-16.57s-1.56-6.16-3.05-7.6c-1.48-1.42-3.71-2.13-6.68-2.13-2.49,0-4.33.47-5.57,1.39h.03Z"/>
    <path class="st1" d="M1233.27,150.01l-4.64,25.01-4.08,1.29c-4.2-2.6-8.45-4.66-12.78-6.21s-7.73-2.31-10.2-2.31c-3.21,0-4.81,1.11-4.81,3.34,0,1.6.92,2.97,2.77,4.08s4.87,2.4,9.08,3.89c5.31,1.97,9.7,3.89,13.17,5.74,3.45,1.85,6.49,4.53,9.09,8.05s3.89,8,3.89,13.44-1.36,10.47-4.08,15.1-7.04,8.41-12.97,11.31c-5.92,2.9-13.41,4.36-22.43,4.36-10.13,0-20.51-1.6-31.12-4.81l4.26-26.5,2.97-2.23c4.57,3.58,9.54,6.42,14.93,8.52s9.86,3.15,13.44,3.15,5.2-1.16,5.2-3.52c0-1.6-.92-2.97-2.77-4.08s-4.89-2.4-9.09-3.89c-5.31-1.97-9.73-3.89-13.25-5.74-3.52-1.85-6.58-4.53-9.17-8.05s-3.89-8.05-3.89-13.62,1.55-11.05,4.63-15.75c3.08-4.69,7.57-8.39,13.44-11.12,5.87-2.71,12.88-4.08,21.02-4.08,9.02,0,18.16,1.55,27.42,4.64h-.01Z"/>
    <path class="st1" d="M1376.68,234.85h-37.61l-3.34-19.83-.18-.55-18.16-.37-15.2.74-3.15,20.01h-36.32l36.32-119.88h44.84l32.79,119.88h.01ZM1330,187.43l-8.15-39.28h-2.23l-10.37,39.28,10.37.2,10.37-.2h.01Z"/>
    <path class="st1" d="M1464.69,195.95l.18,11.31c0,1.48.18,2.53.55,3.15.37.61.99.92,1.85.92s1.92-.2,3.15-.55l2.23,1.85-3.15,18.53c-4.57,3.21-10.33,5.07-17.23,5.57-3.96-.24-7.44-1.48-10.47-3.71s-5.41-5.31-7.13-9.26h-1.29c-4.94,5.31-10.74,9.57-17.41,12.78-11.73,0-20.93-3.96-27.61-11.86-6.68-7.9-10.01-18.65-10.01-32.24,0-15.2,4.08-26.77,12.23-34.74,8.15-7.97,19.33-11.94,33.55-11.94,1.85,0,4.13.2,6.85.55l-.55-39.08,35.95-2.41-1.68,91.17h0v-.03ZM1414.48,172.97c-1.6,2.23-2.41,6.49-2.41,12.78,0,8.52.87,14.67,2.6,18.43,1.73,3.76,4.45,5.65,8.15,5.65,3.08,0,5.99-1.24,8.71-3.71l.2-6.68-.37-27.98c-2.84-1.24-5.61-1.85-8.34-1.85-4.08,0-6.92,1.11-8.52,3.32h-.01Z"/>
    <path class="st1" d="M1511.01,164.27l6.49,37.44h1.85l8.34-35.21,3.32-19.09h31.12l-25.95,87.44h-39.28l-22.06-86.89,33.72-1.29,2.4,17.61h.06Z"/>
    <path class="st1" d="M1641.64,198.54l-45.96.37c1.12,4.32,3.21,7.5,6.29,9.53,3.08,2.05,7.36,3.05,12.78,3.05,6.05,0,14.88-1.55,26.5-4.63l2.6,1.85-5.57,24.46c-9.76,2.6-18.83,3.89-27.23,3.89-15.32,0-27.27-4.08-35.85-12.21s-12.88-19.39-12.88-33.72,4.08-25.38,12.21-33.55c8.15-8.15,19.33-12.23,33.55-12.23,12.23,0,21.7,3.21,28.43,9.64s10.1,15.38,10.1,26.87c0,3.71-.37,7.73-1.11,12.04l-3.89,4.64h.01ZM1616.06,178.16c0-6.55-2.77-9.81-8.34-9.81-6.8,0-10.94,4.39-12.41,13.17l20.38-.74.37-2.6h0Z"/>
    <path class="st1" d="M1707.23,234.85l1.85-48.91c0-7.53-2.9-11.31-8.71-11.31-2.84,0-5.74.87-8.71,2.6v18.7l1.48,38.91h-36.12l1.68-35.19-1.29-50.21,34.27-2.4v12.97h1.29c6.42-6.42,13.65-11.01,21.67-13.71,9.26,0,16.33,2.09,21.22,6.29,4.87,4.2,7.2,10.25,6.94,18.16l-.74,25.2,1.29,38.91h-36.12v-.03Z"/>
    <path class="st1" d="M1813.39,206.33l2.23,2.77-3.34,20.01c-2.6,1.6-5.68,3.05-9.26,4.36-3.58,1.29-7.04,2.2-10.38,2.68-9.76,0-17.41-2.23-22.98-6.68s-8.34-10.37-8.34-17.78l1.11-19.27-.2-23.15h-11.49l-.92-1.85,1.48-19.09h10.94l-.18-15.75,33.55-8.89,2.23,2.05-.92,22.61h18.16l.92,1.85-1.48,19.09h-18.34l-1.11,31.3c0,2.97.53,5.04,1.56,6.21,1.05,1.18,2.93,1.76,5.65,1.76,3.21,0,6.92-.74,11.12-2.23h-.01Z"/>
    <path class="st1" d="M1914.37,212.62l-3.15,18.53c-5.92,3.83-12.1,5.68-18.53,5.57-7.17-1.48-12.36-6.68-15.57-15.57h-2.23c-3.45,3.83-6.85,6.96-10.2,9.36s-7.04,4.23-11.12,5.47c-9.13,0-16.22-2.09-21.22-6.29s-7.5-10.25-7.5-18.16l.55-19.09-1.12-42.99,34.27-2.4v50.21c0,3.71.61,6.33,1.85,7.88s3.15,2.31,5.74,2.31c1.6,0,3-.21,4.16-.64s2.44-1.15,3.81-2.13v-55.22l34.27-2.4-2.03,60.4c0,1.36.21,2.36.64,2.97.44.61,1.08.92,1.95.92s1.92-.2,3.15-.55l2.23,1.85h.03l.03-.03Z"/>
    <path class="st1" d="M1985.88,147.59v32.42l-3.52,1.11c-1.6-.99-3.83-1.48-6.68-1.48s-5.6.61-8.61,1.85c-3.04,1.24-5.84,2.97-8.44,5.2v9.26l1.48,38.91h-36.12l1.68-35.19-1.29-50.21,34.27-2.4v16.3h1.68c5.31-10.74,12.41-16.12,21.3-16.12,1.6,0,3.04.13,4.26.37v-.03h-.01Z"/>
    <path class="st1" d="M2068.15,198.54l-45.96.37c1.12,4.32,3.21,7.5,6.29,9.53s7.36,3.05,12.78,3.05c6.05,0,14.88-1.55,26.5-4.63l2.6,1.85-5.57,24.46c-9.76,2.6-18.83,3.89-27.24,3.89-15.32,0-27.27-4.08-35.85-12.21-8.58-8.15-12.88-19.39-12.88-33.72s4.08-25.38,12.21-33.55c8.15-8.15,19.34-12.23,33.55-12.23,12.23,0,21.7,3.21,28.43,9.64,6.73,6.42,10.1,15.38,10.1,26.87,0,3.71-.37,7.73-1.12,12.04l-3.88,4.64h.03ZM2042.58,178.16c0-6.55-2.77-9.81-8.34-9.81-6.79,0-10.92,4.39-12.41,13.17l20.38-.74.37-2.6h0Z"/>
  </g>
</svg>