<?xml version="1.0" encoding="UTF-8"?>
<svg id="Layer_1" xmlns="http://www.w3.org/2000/svg" version="1.1" viewBox="0 0 80 80">
  <!-- Generator: Adobe Illustrator 30.2.1, SVG Export Plug-In . SVG Version: 2.1.1 Build 1)  -->
  <defs>
    <style>
      .st0 {
        fill: #055091;
      }
    </style>
  </defs>
  <path class="st0" d="M79.02,4.49H26.21c-2.86,0-6.24-.33-7.21,1.8-.94,2.08-6.54,20.42-7.2,22.87L1.3,68.18c-.36,1.28-.42,2.39-.19,3.33s.66,1.71,1.3,2.3c.64.59,1.48,1.02,2.53,1.3,1.05.28,2.24.42,3.56.42h28.74c2.71,0,5.06-.58,7.05-1.73s3.35-3.03,4.06-5.64l6.9-25.6h-12.99c-3.71,0-7.2,1.25-9.99,3.4-2.79,2.15-4.89,5.2-5.84,8.79h19.6v-5.49l.95,1.07,1.39,4.42-.61,2.27-30.6,6.24,3.23-13.44c-3.31-.1-7.82-.6-7.82-.6l8.33-1.55.28-1.17c-4.61.63-12.97,1.06-12.97,1.06l13.6-3.66,5.55-23.11c.58-2.43,2.76-4.14,5.25-4.14h15.27c1.06,7.18,3.98,13.59,8.11,18.23,4.2,4.71,9.65,7.59,15.7,7.59h1.05l5.74-34.82.53-3.19h0ZM21.12,23.05c-1.31,0-2.37-1.06-2.37-2.37s1.06-2.37,2.37-2.37,2.37,1.06,2.37,2.37-1.06,2.37-2.37,2.37Z"/>
  <path class="st0" d="M32.11,24.33c0,.71.57,1.28,1.28,1.28s1.28-.57,1.28-1.28-.57-1.28-1.28-1.28-1.28.57-1.28,1.28Z"/>
</svg>